<?xml version="1.0" encoding="iso-8859-1"?>
<!-- Generator: Adobe Illustrator 19.0.0, SVG Export Plug-In . SVG Version: 6.00 Build 0)  -->
<svg version="1.1" id="Layer_1" xmlns="http://www.w3.org/2000/svg" xmlns:xlink="http://www.w3.org/1999/xlink" x="0px" y="0px"
	 viewBox="0 0 512 512" style="enable-background:new 0 0 512 512;" xml:space="preserve">
<g>
	<rect x="181.333" y="128" style="fill:#6C747A;" width="192" height="21.333"/>
	<rect x="149.333" y="256" style="fill:#6C747A;" width="256" height="21.333"/>
	<rect x="149.333" y="298.667" style="fill:#6C747A;" width="256" height="21.333"/>
</g>
<linearGradient id="SVGID_1_" gradientUnits="userSpaceOnUse" x1="-21.4063" y1="595.9688" x2="-15.4063" y2="595.9688" gradientTransform="matrix(10.6667 0 0 -10.6667 473.6667 6826.3335)">
	<stop  offset="0" style="stop-color:#FD6330"/>
	<stop  offset="1" style="stop-color:#FD8530"/>
</linearGradient>
<polygon style="fill:url(#SVGID_1_);" points="309.333,512 277.333,490.667 245.333,512 245.333,426.667 309.333,426.667 "/>
<path style="fill:#6C747A;" d="M277.333,448C247.925,448,224,424.075,224,394.667c0-29.408,23.925-53.333,53.333-53.333
	s53.333,23.925,53.333,53.333C330.667,424.075,306.741,448,277.333,448z M277.333,362.667c-17.643,0-32,14.357-32,32
	c0,17.643,14.357,32,32,32s32-14.357,32-32C309.333,377.024,294.976,362.667,277.333,362.667z"/>
<linearGradient id="SVGID_2_" gradientUnits="userSpaceOnUse" x1="-30.4063" y1="620.9688" x2="-6.4063" y2="620.9688" gradientTransform="matrix(10.6667 0 0 -10.6667 473.6667 6826.3335)">
	<stop  offset="0" style="stop-color:#73DBE6"/>
	<stop  offset="1" style="stop-color:#CAE6B8"/>
</linearGradient>
<rect x="149.333" y="170.667" style="fill:url(#SVGID_2_);" width="256" height="64"/>
<g>
	<path style="fill:#6C747A;" d="M448,106.667H149.333V85.333c17.643,0,32-14.357,32-32s-14.357-32-32-32V0H448
		c14.24,0,27.627,5.547,37.707,15.616l0,0c10.069,10.08,15.627,23.477,15.627,37.717s-5.557,27.637-15.627,37.707
		C475.627,101.12,462.24,106.667,448,106.667z M191.979,85.333H448c8.544,0,16.576-3.328,22.624-9.376
		c6.048-6.048,9.376-14.08,9.376-22.624s-3.339-16.576-9.376-22.624c-6.048-6.048-14.08-9.376-22.624-9.376H191.979
		c6.699,8.917,10.688,20,10.688,32S198.677,76.416,191.979,85.333z"/>
	<path style="fill:#6C747A;" d="M64,490.667c-29.408,0-53.333-23.925-53.333-53.333S34.592,384,64,384h42.667v21.333H64
		c-17.643,0-32,14.357-32,32s14.357,32,32,32V490.667z"/>
	<path style="fill:#6C747A;" d="M405.333,490.667h-74.667v-21.333h74.667c8.544,0,16.587-3.339,22.624-9.376
		c6.037-6.037,9.376-14.08,9.376-22.624V128h21.333v309.333c0,14.24-5.557,27.637-15.627,37.707S419.573,490.667,405.333,490.667z"
		/>
	<path style="fill:#6C747A;" d="M224,490.667H64v-21.333c8.544,0,16.576-3.339,22.624-9.376c6.048-6.048,9.376-14.08,9.376-22.624
		v-384c0-14.229,5.547-27.627,15.616-37.707C121.707,5.547,135.104,0,149.333,0v21.333c-8.544,0-16.576,3.328-22.624,9.376
		c-6.048,6.048-9.376,14.08-9.376,22.624v384c0,11.691-3.744,22.816-10.667,32H224V490.667z"/>
	<rect x="288" y="42.667" style="fill:#6C747A;" width="21.333" height="21.333"/>
	<rect x="330.667" y="42.667" style="fill:#6C747A;" width="21.333" height="21.333"/>
	<rect x="373.333" y="42.667" style="fill:#6C747A;" width="21.333" height="21.333"/>
	<rect x="352" y="384" style="fill:#6C747A;" width="21.333" height="21.333"/>
	<rect x="181.333" y="384" style="fill:#6C747A;" width="21.333" height="21.333"/>
</g>
<g>
</g>
<g>
</g>
<g>
</g>
<g>
</g>
<g>
</g>
<g>
</g>
<g>
</g>
<g>
</g>
<g>
</g>
<g>
</g>
<g>
</g>
<g>
</g>
<g>
</g>
<g>
</g>
<g>
</g>
</svg>
